<svg xmlns="http://www.w3.org/2000/svg" width="280" height="319" viewBox="0 0 280 319"><g><g><path fill="#232257" d="M147.723 2.166l62.27 35.994.024-.024 62.437 36.088a15.15 15.15 0 0 1 7.522 13.087H280v144.402c0 5.983-3.475 11.155-8.498 13.61l-61.485 35.565c-.285.143-.57.31-.856.453l-61.652 35.635a15.028 15.028 0 0 1-15.21-.119l-62.27-36.017-.025.048-62.436-36.113C2.735 241.986.046 236.91.046 231.713h-.048V87.31c0-6.007 3.475-11.18 8.522-13.635l61.484-35.54c.286-.167.548-.31.834-.453l61.675-35.66c4.88-2.813 10.688-2.574 15.21.143z"/></g><g><path fill="#fff" d="M83.045 173.713c-1.272 0-2.302-1.05-2.302-2.32a2.3 2.3 0 0 1 2.302-2.298h34.018a3.9 3.9 0 0 1 1.952.526c.57.328 1.075.81 1.426 1.4l7.347 12.692c.417.635.592 1.335.592 2.035 0 .635-.153 1.27-.439 1.817a4.022 4.022 0 0 1-1.294 1.422 3.781 3.781 0 0 1-2.149.657H113.4v5.186l18.62.022c.68 0 1.36.175 1.93.503.593.328 1.076.81 1.427 1.422l26.077 44.927-15.374-45.102a3.729 3.729 0 0 1-.198-.656 4.462 4.462 0 0 1-.066-.744v-22.233c0-1.073.44-2.035 1.141-2.758a3.917 3.917 0 0 1 2.763-1.138v.022h41.19c3.575 0 7.172-.087 10.813-.24 3.575-.175 7.171-.438 10.746-.81a3.922 3.922 0 0 1 2.172.372c.658.328 1.25.853 1.645 1.532l11.646 20.067h3.75a2.323 2.323 0 0 1 2.325 2.32c0 1.269-1.053 2.319-2.325 2.319h-5.088v-.022c-.79 0-1.557-.416-1.996-1.138l-12.085-20.81c-3.509.35-7.04.612-10.593.765-3.64.175-7.326.263-11.01.263h-40.444v21.358l17.195 50.484c.088.24.746 1.204 1.229 1.948.24.328.438.634.57.831a2.29 2.29 0 0 1 .11 2.254c-.57 1.138-1.975 1.62-3.115 1.05l-5.703-2.866a2.214 2.214 0 0 1-1.096-.963l-28.074-48.362h-20.024v.022c-.768 0-1.47-.328-1.974-.831a2.795 2.795 0 0 1-.834-1.97v-8.863c0-.765.33-1.466.834-1.969a2.807 2.807 0 0 1 1.974-.832h11.646l-6.558-11.291zm147.102 6.98c.417 1.204-.241 2.517-1.448 2.933a2.334 2.334 0 0 1-2.938-1.466l-3.729-10.964a1.943 1.943 0 0 1-.132-.438 3.853 3.853 0 0 1 .351-2.626 3.822 3.822 0 0 1 2.018-1.816c.22-.087.417-.153.592-.197 1.755-.372 3.29-.766 4.562-1.181l.11-.022c.921-.307 1.733-.613 2.434-.941a26.753 26.753 0 0 0-2.544-.941c-1.294-.416-2.807-.81-4.54-1.204a1.643 1.643 0 0 1-.35-.087h-.023a4.333 4.333 0 0 1-1.82-1.204c-.702-.81-1.162-1.947-.768-3.457.022-.044.044-.154.088-.285l6.426-18.841h-.504l-11.646 20.066a3.797 3.797 0 0 1-1.601 1.51 3.76 3.76 0 0 1-2.15.394 198.73 198.73 0 0 0-10.79-.81c-3.51-.153-7.129-.218-10.835-.218h-41.19a3.937 3.937 0 0 1-2.763-1.16 3.887 3.887 0 0 1-1.14-2.735l.021-22.234c0-.218.022-.437.088-.656.724-3.48 5.33-16.653 8.247-25.013.811-2.32 1.47-4.223 1.996-5.777.416-1.203 1.732-1.86 2.939-1.444a2.297 2.297 0 0 1 1.447 2.932c-.285.898-1.075 3.108-2.018 5.8-3.07 8.84-8.093 23.196-8.093 24.136v21.512h40.466c3.575 0 7.26.065 11.054.262 3.53.153 7.04.416 10.55.766l12.084-20.81a2.305 2.305 0 0 1 1.996-1.139h4.935c.285-.022.592 0 .9.11a2.332 2.332 0 0 1 1.447 2.932l-7.216 21.117c1.513.35 2.917.722 4.167 1.138 1.491.482 2.763.985 3.816 1.51 2.26 1.16 3.356 2.254 3.356 3.83 0 1.619-1.119 2.691-3.356 3.851-1.009.503-2.259 1.007-3.706 1.466l-.11.044a48.992 48.992 0 0 1-4.167 1.138zm-70.491-100.53a2.31 2.31 0 0 1 3.158-.854 2.325 2.325 0 0 1 .856 3.173l-28.162 48.493a3.957 3.957 0 0 1-1.425 1.576 3.655 3.655 0 0 1-2.062.568H113.4v5.209h11.097c.702 0 1.36.197 1.93.525.592.35 1.097.831 1.426 1.422.35.591.526 1.248.526 1.948 0 .656-.153 1.313-.526 1.947l-7.391 12.737c-.33.568-.79 1.05-1.339 1.378a3.85 3.85 0 0 1-2.061.591H83.045v.022c-2.39 0-10.483.569-16.12 2.385-2.588.832-4.518 1.773-4.518 2.692 0 1.29-1.03 2.32-2.303 2.32a2.305 2.305 0 0 1-2.303-2.32c0-3.436 3.29-5.668 7.698-7.09 6.207-1.992 14.958-2.626 17.546-2.626h33.601l6.558-11.314h-11.646v.022c-.768 0-1.47-.328-1.974-.832a2.794 2.794 0 0 1-.834-1.97v-8.862h.022v-.022c0-.766.307-1.466.812-1.947a2.768 2.768 0 0 1 1.974-.832v.022h20.024zm-80.734 121.91c0-1.269 1.031-2.32 2.325-2.32 7.918 0 15.09 3.218 20.288 8.382 5.176 5.186 8.4 12.342 8.4 20.242s-3.224 15.055-8.4 20.242a28.626 28.626 0 0 1-20.288 8.38 28.625 28.625 0 0 1-20.288-8.38c-5.198-5.187-8.4-12.342-8.4-20.242 0-1.27 1.031-2.32 2.325-2.32a2.337 2.337 0 0 1 2.325 2.32c0 6.63 2.676 12.626 7.04 16.96 4.343 4.354 10.352 7.024 16.998 7.024 6.646 0 12.655-2.67 16.998-7.025 4.342-4.333 7.04-10.329 7.04-16.96 0-6.63-2.698-12.626-7.04-16.959a23.994 23.994 0 0 0-16.998-7.024 2.323 2.323 0 0 1-2.325-2.32zm-15.111 12.19c-.9-.898-.9-2.364 0-3.283.899-.898 2.368-.898 3.29 0l14.146 14.114 11.032-11.007c.921-.897 2.39-.897 3.29 0 .9.897.9 2.385 0 3.283l-12.677 12.648c-.921.897-2.39.897-3.29 0zm50.466-118.214a14.373 14.373 0 0 1 4.233 10.198c0 3.983-1.623 7.593-4.233 10.22a14.529 14.529 0 0 1-10.242 4.223 14.405 14.405 0 0 1-8.62-2.867h-.021a14.411 14.411 0 0 1-4.606-5.799h-4.43l-1.668 1.663a2.32 2.32 0 0 1-3.268 0l-3.267-3.26-3.268 3.26c-.921.897-2.391.897-3.29 0l-3.268-3.26-3.268 3.26c-.9.897-2.39.897-3.29 0l-3.268-3.26-3.268 3.26c-.9.897-2.369.897-3.29 0l-7.281-7.287c-.9-.897-.9-2.363 0-3.26.131-.132.285-.263.438-.35l5.9-4.202a2.378 2.378 0 0 1 1.338-.438h39.742a14.613 14.613 0 0 1 4.584-4.31 14.584 14.584 0 0 1 7.369-2.014c3.992 0 7.61 1.62 10.242 4.223zm-4.956 1.948c.46.832.724 1.794.724 2.823a5.984 5.984 0 0 1-6.01 5.974 5.958 5.958 0 0 1-4.233-1.75 5.893 5.893 0 0 1-1.755-4.224c0-1.028.264-1.991.702-2.823a9.947 9.947 0 0 0-3.268 3.414 2.295 2.295 0 0 1-2.105 1.379h-40.29l-3.203 2.275 3.707 3.699 3.268-3.261c.921-.897 2.39-.897 3.29 0l3.268 3.26 3.268-3.26c.899-.897 2.369-.897 3.29 0l3.268 3.26 3.268-3.26c.899-.897 2.368-.897 3.29 0l3.267 3.26.68-.678a2.304 2.304 0 0 1 1.645-.678h6.997c1.009 0 1.93.656 2.237 1.663a9.803 9.803 0 0 0 9.409 6.98 9.806 9.806 0 0 0 6.953-2.866 9.762 9.762 0 0 0 2.873-6.937 9.75 9.75 0 0 0-2.873-6.915 9.694 9.694 0 0 0-1.667-1.335zM105 99.857a1.38 1.38 0 0 0-.965-.394c-.373 0-.702.153-.943.394-.263.24-.417.59-.417.963 0 .372.154.7.417.963h-.022a1.379 1.379 0 0 0 1.93 0c.241-.263.395-.591.395-.963 0-.35-.132-.656-.33-.897z"/></g></g></svg>