<svg xmlns="http://www.w3.org/2000/svg" width="19" height="19" viewBox="0 0 19 19"><g><g><path fill="#fff" d="M14.069 1.915a6.447 6.447 0 0 1 1.902 4.604 6.482 6.482 0 0 1-1.6 4.266 9.047 9.047 0 0 1 1.835 1.456A9.49 9.49 0 0 1 19 18.995h-3.568A5.924 5.924 0 0 0 13.7 14.78a5.909 5.909 0 0 0-4.208-1.76 5.9 5.9 0 0 0-4.19 1.76 5.968 5.968 0 0 0-1.75 4.215H0c0-2.64 1.06-5.027 2.777-6.754a9.64 9.64 0 0 1 1.85-1.456A6.397 6.397 0 0 1 3.03 6.52c0-1.81.724-3.436 1.885-4.604A6.43 6.43 0 0 1 9.491.002a6.4 6.4 0 0 1 4.578 1.913zM9.491 3.591c-.79 0-1.531.322-2.053.846A2.997 2.997 0 0 0 6.58 6.52c0 .796.337 1.541.858 2.066a2.922 2.922 0 0 0 2.053.863c.808 0 1.532-.339 2.054-.863.538-.525.858-1.27.858-2.066 0-.812-.32-1.54-.858-2.082a2.877 2.877 0 0 0-2.054-.846z"/></g></g></svg>