<svg xmlns="http://www.w3.org/2000/svg" width="38" height="36" viewBox="0 0 38 36"><defs><clipPath id="kklla"><path fill="#fff" d="M17.625.375h2.25C29.609.375 37.5 8.265 37.5 18c0 9.734-7.891 17.625-17.625 17.625h-2.25C7.891 35.625 0 27.734 0 18S7.89.375 17.625.375z"/></clipPath></defs><g><g><path fill="#1550a2" d="M17.625.375h2.25C29.609.375 37.5 8.265 37.5 18c0 9.734-7.891 17.625-17.625 17.625h-2.25C7.891 35.625 0 27.734 0 18S7.89.375 17.625.375z"/><path fill="none" stroke="#e6e6e6" stroke-miterlimit="50" stroke-width="4" d="M17.625.375h2.25C29.609.375 37.5 8.265 37.5 18c0 9.734-7.891 17.625-17.625 17.625h-2.25C7.891 35.625 0 27.734 0 18S7.89.375 17.625.375z" clip-path="url(&quot;#kklla&quot;)"/></g><g><path fill="#fff" d="M23.45 10.994l.543-2.369H28.5v1.939h-2.85l-.106.43-2.22 9.62-.756 3.302H10.686v-1.93h10.225l.388-1.664-12.3-1.802v-7.526zM14.06 26.312c0 .997-.853 1.81-1.91 1.81-1.066 0-1.918-.813-1.918-1.81 0-.997.852-1.811 1.919-1.811 1.056 0 1.909.814 1.909 1.81zm8.131 0c0 .997-.852 1.81-1.919 1.81-1.056 0-1.909-.813-1.909-1.81 0-.997.853-1.811 1.91-1.811 1.066 0 1.918.814 1.918 1.81zm.815-13.38h-11.95v3.942l10.68 1.555z"/></g></g></svg>