<svg xmlns="http://www.w3.org/2000/svg" width="21" height="20" viewBox="0 0 21 20"><defs><clipPath id="kz9ea"><path fill="#fff" d="M10 0h1c5.523 0 10 4.477 10 10s-4.477 10-10 10h-1C4.477 20 0 15.523 0 10S4.477 0 10 0z"/></clipPath></defs><g><g><path fill="red" d="M10 0h1c5.523 0 10 4.477 10 10s-4.477 10-10 10h-1C4.477 20 0 15.523 0 10S4.477 0 10 0z"/><path fill="none" stroke="#000" stroke-miterlimit="50" stroke-width="4" d="M10 0h1c5.523 0 10 4.477 10 10s-4.477 10-10 10h-1C4.477 20 0 15.523 0 10S4.477 0 10 0z" clip-path="url(&quot;#kz9ea&quot;)"/></g></g></svg>