<svg xmlns="http://www.w3.org/2000/svg" width="280" height="319" viewBox="0 0 280 319"><g><g><path fill="#232257" d="M147.723 2.166l62.27 35.994.024-.024 62.438 36.088a15.15 15.15 0 0 1 7.521 13.087H280v144.402c0 5.983-3.475 11.155-8.498 13.61l-61.485 35.565c-.285.143-.57.31-.856.453l-61.652 35.635a15.028 15.028 0 0 1-15.21-.119l-62.27-36.017-.025.048-62.436-36.113C2.735 241.986.046 236.91.046 231.713h-.048V87.31c0-6.007 3.475-11.18 8.522-13.635l61.484-35.54c.286-.167.548-.31.834-.453l61.675-35.66c4.88-2.813 10.688-2.574 15.21.143z"/></g><g><path fill="#fff" d="M141.262 243.117a2.25 2.25 0 0 1-2.262 2.262c-23.711 0-45.181-9.604-60.718-25.14-15.537-15.559-25.162-37.029-25.162-60.74 0-23.71 9.625-45.18 25.162-60.717C93.82 83.245 115.29 73.62 139 73.62c23.71 0 45.202 9.625 60.739 25.162 15.536 15.537 25.14 37.007 25.14 60.717a2.245 2.245 0 0 1-2.24 2.263 2.25 2.25 0 0 1-2.263-2.263c0-22.472-9.113-42.811-23.839-57.537C181.811 87.257 161.473 78.144 139 78.144s-42.812 9.113-57.538 23.818c-14.704 14.726-23.817 35.065-23.817 57.537 0 22.473 9.113 42.812 23.817 57.538 14.726 14.726 35.065 23.839 57.538 23.839a2.245 2.245 0 0 1 2.262 2.24zm42.107-127.987c11.354 11.354 18.397 27.04 18.397 44.37 0 17.329-7.043 33.015-18.397 44.37-11.354 11.353-27.04 18.396-44.37 18.396-17.329 0-33.015-7.043-44.369-18.397s-18.375-27.04-18.375-44.37a2.263 2.263 0 0 1 2.262-2.262h11.802a2.263 2.263 0 0 1 2.262 2.262 2.25 2.25 0 0 1-2.262 2.263h-9.497c.579 15.19 6.963 28.88 17.01 38.927 10.045 10.026 23.734 16.428 38.905 17.01v-9.519a2.277 2.277 0 0 1 2.263-2.262 2.263 2.263 0 0 1 2.262 2.262v9.518c15.191-.58 28.881-6.983 38.928-17.009 10.026-10.046 16.428-23.736 17.009-38.927h-9.519a2.263 2.263 0 0 1-2.262-2.263 2.277 2.277 0 0 1 2.262-2.262h9.518c-.58-15.171-6.983-28.86-17.008-38.906-10.047-10.046-23.737-16.43-38.928-17.009v9.497A2.25 2.25 0 0 1 139 113.08a2.263 2.263 0 0 1-2.263-2.262V99.017A2.263 2.263 0 0 1 139 96.754c17.33 0 33.015 7.022 44.37 18.376zm-82.187 9.732a2.254 2.254 0 0 1 0-3.18c.875-.875 2.305-.875 3.201 0L139 156.299l27.51-27.49a2.254 2.254 0 0 1 3.18 0 2.242 2.242 0 0 1 0 3.202L140.6 161.1c-.875.875-2.305.875-3.2 0l-.002-.001z"/></g></g></svg>