<svg xmlns="http://www.w3.org/2000/svg" width="52" height="53" viewBox="0 0 52 53"><g><g><path fill="#fff" d="M17.203 51.526V50.01c0-.107.064-.202.155-.246l6.362-3.67.01-.005a.201.201 0 0 0 .086-.192l-.001-.01a58 58 0 0 1-.245-3.268 70.144 70.144 0 0 1-.073-3.273V27.043h-.001a.197.197 0 0 0-.198-.197l-.94-.008c-1.865-.014-5.658-.042-5.815.023a.367.367 0 0 1-.021.007l-15.176 5.14-.012.004c-.129.05-.435.257-.672.414a12.22 12.22 0 0 1-.241.16.275.275 0 0 1-.386-.366l.87-1.732a.269.269 0 0 1 .107-.114l-.001-.002 14.646-8.445a.2.2 0 0 0 .099-.172v-6.113h-.001c0-.113.048-.218.125-.294h-.002a.421.421 0 0 1 .297-.124h2.664c.115 0 .22.048.296.125.077.075.123.18.123.293v3.865c0 .044.012.08.032.11a.213.213 0 0 0 .071.064c.03.014.063.023.097.023.038 0 .077-.01.11-.034a.111.111 0 0 1 .016-.009l3.813-2.199a.208.208 0 0 0 .071-.071.2.2 0 0 0 .026-.1h.002V7.126c0-.755.183-3.313.768-5.111C24.638.864 25.192 0 26 0c.807.001 1.36.864 1.735 2.015.585 1.8.77 4.357.77 5.111h-.001v10.165c0 .04.011.074.03.105.02.033.048.057.082.074.005.003.011.005.017.01v-.002l3.812 2.199a.192.192 0 0 0 .197 0 .204.204 0 0 0 .073-.073.184.184 0 0 0 .026-.097h.001l.002-3.865h-.002c0-.114.046-.218.123-.294a.415.415 0 0 1 .295-.124h2.665a.42.42 0 0 1 .42.416l-.001.026v6.09c0 .038.011.073.03.104.02.032.048.056.08.073l.02.01 14.614 8.43a.275.275 0 0 1 .115.13l.869 1.73a.271.271 0 0 1-.124.366.27.27 0 0 1-.268-.013 9.052 9.052 0 0 1-.242-.16c-.244-.163-.563-.376-.686-.419l-6.127-2.12v.001c-.33-.112-.969-.334-1.743-.603-2.683-.931-7.04-2.444-7.397-2.439l-6.682-.001v.001a.204.204 0 0 0-.142.057.196.196 0 0 0-.056.14v12.303a69.72 69.72 0 0 1-.075 3.283 58.475 58.475 0 0 1-.247 3.275.197.197 0 0 0 .098.19l6.377 3.68a.274.274 0 0 1 .138.252v1.5a.274.274 0 0 1-.363.26l-6.582-2.23a.368.368 0 0 0-.027-.007c-.074-.021-.12-.007-.149.018a.32.32 0 0 0-.08.13l-.003.007a16.008 16.008 0 0 1-.382 1.443c-.137.423-.28.784-.43 1.075-.268.52-.493.779-.78.778-.286-.002-.512-.261-.779-.776l-.008-.016a7.166 7.166 0 0 1-.422-1.06 16.14 16.14 0 0 1-.384-1.449c-.004-.014-.006-.026-.009-.032a.2.2 0 0 0-.09-.1.209.209 0 0 0-.138-.017l-.034.009-.013.005v.002l-6.556 2.22a.273.273 0 0 1-.347-.172.258.258 0 0 1-.016-.088z"/></g></g></svg>