<svg xmlns="http://www.w3.org/2000/svg" width="38" height="36" viewBox="0 0 38 36"><defs><clipPath id="7jv0a"><path fill="#fff" d="M17.875.375h2.25C29.859.375 37.75 8.265 37.75 18c0 9.734-7.891 17.625-17.625 17.625h-2.25C8.14 35.625.25 27.734.25 18S8.14.375 17.875.375z"/></clipPath></defs><g><g><path fill="#1550a2" d="M17.875.375h2.25C29.859.375 37.75 8.265 37.75 18c0 9.734-7.891 17.625-17.625 17.625h-2.25C8.14 35.625.25 27.734.25 18S8.14.375 17.875.375z"/><path fill="none" stroke="#e6e6e6" stroke-miterlimit="50" stroke-width="4" d="M17.875.375h2.25C29.859.375 37.75 8.265 37.75 18c0 9.734-7.891 17.625-17.625 17.625h-2.25C8.14 35.625.25 27.734.25 18S8.14.375 17.875.375z" clip-path="url(&quot;#7jv0a&quot;)"/></g><g><path fill="#fff" d="M22.052 10.811a4.835 4.835 0 0 1 1.426 3.454 4.862 4.862 0 0 1-1.2 3.199c.506.305.973.673 1.377 1.092a7.117 7.117 0 0 1 2.095 5.065h-2.676a4.443 4.443 0 0 0-1.3-3.16 4.432 4.432 0 0 0-3.155-1.321 4.425 4.425 0 0 0-3.143 1.32 4.476 4.476 0 0 0-1.313 3.161H11.5c0-1.98.795-3.77 2.082-5.065a7.227 7.227 0 0 1 1.389-1.092 4.798 4.798 0 0 1-1.2-3.2c0-1.358.544-2.577 1.414-3.453a4.822 4.822 0 0 1 3.434-1.434 4.8 4.8 0 0 1 3.433 1.434zm-3.433 1.257a2.18 2.18 0 0 0-1.54.635 2.248 2.248 0 0 0-.644 1.562c0 .596.252 1.155.644 1.548.391.394.946.648 1.54.648.605 0 1.148-.254 1.54-.648.403-.393.643-.952.643-1.548 0-.61-.24-1.156-.644-1.562a2.158 2.158 0 0 0-1.54-.635z"/></g></g></svg>