<svg xmlns="http://www.w3.org/2000/svg" width="280" height="319" viewBox="0 0 280 319"><g><g><path fill="#232257" d="M147.723 2.166l62.27 35.994.024-.024 62.437 36.088a15.15 15.15 0 0 1 7.522 13.087H280v144.402c0 5.983-3.475 11.155-8.498 13.61l-61.485 35.565c-.285.143-.57.31-.856.453l-61.652 35.635a15.028 15.028 0 0 1-15.21-.119l-62.27-36.017-.025.048-62.436-36.113C2.735 241.986.046 236.91.046 231.713h-.048V87.31c0-6.007 3.475-11.18 8.522-13.635l61.484-35.54c.286-.167.548-.31.834-.453l61.675-35.66c4.88-2.813 10.688-2.574 15.21.143z"/></g><g><path fill="#fff" d="M98.64 242.904a3.065 3.065 0 0 1-4.396 0 3.06 3.06 0 0 1 0-4.394l58.328-58.322h-12.569a3.128 3.128 0 0 1-3.127-3.126c0-1.71 1.416-3.096 3.127-3.096h20.121a2.99 2.99 0 0 1 2.184.914 3.06 3.06 0 0 1 0 4.394zm93.23-87.543a3.11 3.11 0 0 1 3.127 3.125v53.34c0 .855-.354 1.622-.915 2.182v.03l-18.616 18.575a3.065 3.065 0 0 1-4.396 0 2.987 2.987 0 0 1-.914-2.182v-32.67l-58.358 58.293a3.065 3.065 0 0 1-4.396 0 3.06 3.06 0 0 1 0-4.393l63.639-63.63a3.165 3.165 0 0 1 2.242-.914 3.097 3.097 0 0 1 3.098 3.096v32.67l12.391-12.354v-48.947H85.127c-1.711 0-3.127-1.385-3.127-3.096v-53.368c0-.855.354-1.622.914-2.182l18.617-18.606a3.065 3.065 0 0 1 4.396 0c.62.59.915 1.416.915 2.212v32.64l58.357-58.293c1.21-1.209 3.186-1.209 4.425 0 1.21 1.21 1.21 3.185 0 4.423l-63.668 63.6c-.56.59-1.357.944-2.212.944a3.128 3.128 0 0 1-3.128-3.125V94.06l-12.391 12.383v48.917zM178.357 74.04c1.21-1.21 3.187-1.21 4.426 0 1.21 1.209 1.21 3.184 0 4.423l-58.357 58.293h12.568c1.711 0 3.127 1.415 3.127 3.125s-1.416 3.096-3.127 3.096h-19.826a3.064 3.064 0 0 1-2.479-.884c-1.239-1.239-1.239-3.214 0-4.423z"/></g></g></svg>