<svg xmlns="http://www.w3.org/2000/svg" width="280" height="319" viewBox="0 0 280 319"><g><g><path fill="#232257" d="M147.723 2.166l62.27 35.994.024-.024 62.437 36.088a15.15 15.15 0 0 1 7.522 13.087H280v144.402c0 5.983-3.475 11.155-8.498 13.61l-61.485 35.565c-.285.143-.57.31-.856.453l-61.652 35.635a15.028 15.028 0 0 1-15.21-.119l-62.27-36.017-.025.048-62.436-36.113C2.735 241.986.046 236.91.046 231.713h-.048V87.31c0-6.007 3.475-11.18 8.522-13.635l61.484-35.54c.286-.167.548-.31.834-.453l61.675-35.66c4.88-2.813 10.688-2.574 15.21.143z"/></g><g><path fill="#fff" d="M173.436 199.23a4.452 4.452 0 0 1 2.538 1.274 4.605 4.605 0 0 1 1.297 3.17v4.19a4.58 4.58 0 0 1-1.043 2.888c-.085.085-.17.198-.254.283-.423.424-.93.764-1.495.99h61.232v-82.294H44.316v82.295h61.203a4.456 4.456 0 0 1-1.495-.991c-.084-.085-.169-.198-.253-.283a4.58 4.58 0 0 1-1.044-2.888v-4.19c0-1.245.508-2.378 1.297-3.17a4.53 4.53 0 0 1 2.567-1.274v-5.605l-2.905-.199a8.26 8.26 0 0 1 .564 3.03 8.743 8.743 0 0 1-2.567 6.2 8.637 8.637 0 0 1-6.148 2.547 8.637 8.637 0 0 1-6.149-2.548v-.028a8.726 8.726 0 0 1-2.566-6.171c0-1.53.395-2.973 1.1-4.219l-32.83-2.434a3.018 3.018 0 0 1-2.792-3v-.822c0-1.67 1.353-3 2.99-3h68.733c-.31-1.303-.507-2.633-.507-3.992l.028-.057-14.44-1.698a2.947 2.947 0 0 1-2.624-2.973l-.028-.594c0-1.642 1.354-3.001 2.99-3.001h16.33a16.508 16.508 0 0 1 2.595-3.369 16.363 16.363 0 0 1 6.966-4.161l1.27-23.27c.084-1.614 1.382-2.86 2.961-2.86h.874c1.636 0 2.99 1.36 2.99 3.001v.057l1.241 23.072a16.462 16.462 0 0 1 6.995 4.161 17.424 17.424 0 0 1 2.566 3.369h16.33c1.637 0 2.99 1.359 2.99 3v.595c0 1.5-1.128 2.803-2.65 2.973l-14.413 1.698v.057c0 1.359-.17 2.69-.508 3.991h68.734c1.664 0 2.99 1.331 2.99 3.001v.821a2.985 2.985 0 0 1-2.933 3.001l-32.661 2.434a8.832 8.832 0 0 1 1.072 4.219c0 2.434-.96 4.614-2.539 6.2a8.654 8.654 0 0 1-6.176 2.547c-2.37 0-4.57-.99-6.15-2.576v.028c-1.578-1.585-2.537-3.765-2.537-6.2 0-1.075.197-2.094.535-3.029l-2.876.199zm-7.052 12.796a4.634 4.634 0 0 1-1.466-.991 4.433 4.433 0 0 1-1.297-3.17v-4.19a4.49 4.49 0 0 1 1.071-2.945l-2.736-6.256-5.443.425c-.282.452-.62.877-1.015 1.245a5.812 5.812 0 0 1-4.005 1.614h-8.518v4.501c.48.198.874.481 1.24.85.114.084.198.197.283.31.536.68.846 1.53.846 2.435v2.576a3.923 3.923 0 0 1-1.128 2.775c-.339.34-.734.622-1.185.82zm-29.389 0a3.996 3.996 0 0 1-1.212-.821 3.923 3.923 0 0 1-1.129-2.775v-2.576c0-1.075.424-2.038 1.129-2.746.112-.113.253-.226.366-.311.254-.227.564-.396.875-.538v-4.501h-8.518a5.812 5.812 0 0 1-4.005-1.614 5.192 5.192 0 0 1-.987-1.245l-5.472-.425-2.736 6.256.028.057a4.34 4.34 0 0 1 1.072 2.887v4.19c0 1.218-.507 2.35-1.325 3.17a4.34 4.34 0 0 1-1.467.992zM15.998 116.878c0-.056.029-.084.029-.141 0-.142.028-.283.056-.396l.028-.057v-.028l.028-.057c0-.028.029-.085.029-.113.028-.057.028-.085.056-.113v-.029c.028-.028.028-.085.057-.113l.028-.057.028-.056.056-.114.029-.056.056-.057v-.028l.028-.028v-.029l.028-.028.029-.028v-.029l.028-.028.056-.057.028-.056h.029l.028-.057.056-.056.028-.057.057-.028.056-.057.028-.056h.029l.028-.029.028-.028.028-.028h.028l.029-.029.028-.028.028-.028h.028v-.029l.057-.028.056-.028v-.028l.057-.029.056-.028.056-.028v-.029c.057 0 .085-.028.141-.056.028-.029.085-.029.113-.057h.028l.057-.028.056-.029h.028l.057-.028.056-.028.057-.029h.084l.057-.028h.028l.056-.028h.085l.056-.029h.113c17.43-4.218 36.835-7.53 57.565-9.766 20.195-2.18 41.658-3.369 63.883-3.369s43.689 1.189 63.855 3.369c20.759 2.236 40.135 5.548 57.565 9.766a2.96 2.96 0 0 1 2.567 2.945v98.232l-.028.085v.142l-.028.085-.029.085v.056l-.028.085-.028.057v.085l-.028.057-.028.056-.029.085-.028.057-.028.085-.028.056-.057.057-.028.057-.028.084-.057.057-.028.057-.028.056-.056.057-.029.057-.112.113-.029.056-.056.057-.056.028-.057.057-.056.057-.028.056-.057.028-.056.057-.057.028-.056.057-.056.028h-.029l-.056.057-.056.028-.057.028-.056.057-.057.028-.084.029-.057.028-.056.028-.085.029-.056.028-.085.028-.056.029h-.085l-.056.028-.085.028h-.056l-.085.029h-.084l-.057.028H18.593l-.056-.028h-.085l-.056-.029h-.085l-.056-.028h-.028l-.057-.028h-.084l-.057-.029-.056-.028-.085-.028-.056-.029-.085-.028-.056-.028-.057-.029-.056-.028h-.028l-.057-.057-.056-.028-.056-.028-.057-.057-.056-.028-.057-.057-.056-.028-.057-.057-.056-.028-.056-.056-.057-.057-.056-.057-.057-.028-.028-.057-.113-.113-.028-.056-.056-.057-.028-.057-.057-.056-.028-.057-.056-.057-.029-.084-.056-.114-.028-.056-.057-.085-.028-.057-.028-.085v-.056l-.028-.057-.029-.085-.028-.057-.028-.085v-.056l-.028-.085v-.085l-.028-.057v-.17l-.029-.056v-98.375zm124.015-9.88c-22.112 0-43.35 1.161-63.262 3.313-9.59 1.047-18.897 2.293-27.81 3.793h182.144c-8.94-1.5-18.248-2.746-27.837-3.793-19.913-2.152-41.15-3.312-63.235-3.312zm9.026 77.398c.48-.821.846-1.67 1.1-2.576.197-.68.31-1.387.338-2.152a2.88 2.88 0 0 1-2.595.085l-1.636-.736-5.358 1.614c-.564.17-1.157.17-1.72 0l-5.416-1.614-1.495.68a3.008 3.008 0 0 1-2.736-.029c.028.765.17 1.472.339 2.152.254.877.62 1.698 1.071 2.491.057.085.113.198.17.283.113.17.254.34.451.538l.113.141c.282.255.648.538 1.043.821 1.354.935 1.665 2.803.734 4.162a2.947 2.947 0 0 1-4.146.736c-.62-.425-1.241-.906-1.777-1.444l-.17-.17c-.14-.141-.281-.255-.394-.396h-2.398l1.326.085a2.988 2.988 0 0 1 2.736 2.69h22.76a2.992 2.992 0 0 1 2.765-2.69l1.325-.085h-2.425l-.395.396a13.426 13.426 0 0 1-1.946 1.614c-1.354.962-3.187.623-4.146-.736a3.003 3.003 0 0 1 .761-4.162c.452-.34.846-.65 1.128-.962.226-.198.424-.425.536-.651.029-.029.029-.057.057-.085zm-9.026-13.249l6.346-.538a10.443 10.443 0 0 0-6.317-2.151h-.085c-2.37 0-4.57.82-6.318 2.151zm118.008-51.07H21.978v91.949h16.358V126.73a2.997 2.997 0 0 1 2.99-3h197.375c1.635 0 2.961 1.358 2.961 3v85.296h16.359zm-73.557 73.633a2.7 2.7 0 0 0-1.918.792v.029a2.678 2.678 0 0 0-.818 1.925c0 .764.31 1.443.818 1.953.48.51 1.156.793 1.918.793.761 0 1.466-.284 1.946-.793.507-.51.79-1.189.79-1.953 0-.736-.283-1.444-.79-1.925a2.675 2.675 0 0 0-1.946-.821zm-88.93 0c-.76 0-1.438.31-1.945.82a2.72 2.72 0 0 0-.79 1.926c0 .764.31 1.472.79 1.953a2.7 2.7 0 0 0 1.946.793c.762 0 1.438-.284 1.946-.793h-.028c.507-.51.818-1.189.818-1.953 0-.736-.31-1.444-.818-1.925a2.611 2.611 0 0 0-1.918-.821z"/></g></g></svg>