<svg xmlns="http://www.w3.org/2000/svg" width="280" height="319" viewBox="0 0 280 319"><g><g><path fill="#232257" d="M147.723 2.166l62.27 35.994.024-.024 62.438 36.088a15.15 15.15 0 0 1 7.521 13.087H280v144.402c0 5.983-3.475 11.155-8.498 13.61l-61.485 35.565c-.285.143-.57.31-.856.453l-61.652 35.635a15.028 15.028 0 0 1-15.21-.119l-62.27-36.017-.025.048-62.436-36.113C2.735 241.986.046 236.91.046 231.713h-.048V87.31c0-6.007 3.475-11.18 8.522-13.635l61.484-35.54c.286-.167.548-.31.834-.453l61.675-35.66c4.88-2.813 10.688-2.574 15.21.143z"/></g><g><path fill="#fff" d="M66.017 211.646c-1.124 0-2.019-.9-2.019-2.029 0-1.11.895-2.01 2.02-2.01h70.084l-20.231-20.346a2.029 2.029 0 0 1 0-2.852 1.995 1.995 0 0 1 2.857 0l23.66 23.773c.362.363.59.88.59 1.435 0 1.13-.895 2.03-2 2.03zm0-104.816a2.025 2.025 0 0 1-2.019-2.029c0-1.129.895-2.029 2.02-2.029h70.084L115.87 82.445c-.781-.804-.781-2.087 0-2.871.78-.785 2.057-.785 2.857 0l23.66 23.773c.362.363.59.88.59 1.454 0 1.11-.895 2.03-2 2.03zm71.761-24.385c-.781-.804-.781-2.087 0-2.871.781-.785 2.057-.785 2.858 0l31.413 31.563c.78.804.78 2.086 0 2.871l-31.413 31.564c-.4.402-.915.593-1.43.593H117.3c-1.123 0-2.019-.9-2.019-2.01 0-.574.229-1.09.61-1.455l20.212-20.308H66.017a2.025 2.025 0 0 1-2.019-2.03c0-1.129.895-2.028 2.02-2.028h74.96c.515 0 1.03.191 1.41.593.8.785.8 2.068 0 2.871l-20.23 20.328h16.21l29.414-29.553zm-14.42 76.793a2.038 2.038 0 0 1-2.02-2.029c0-1.11.914-2.029 2.02-2.029h70.084l-20.231-20.327c-.781-.785-.781-2.068 0-2.872.8-.784 2.076-.784 2.857 0l23.66 23.774c.381.382.61.88.61 1.454 0 1.11-.915 2.03-2.02 2.03zm71.76-24.385c-.781-.785-.781-2.068 0-2.872.8-.784 2.077-.784 2.858 0l31.413 31.583c.8.785.8 2.067 0 2.852L197.976 198a2.08 2.08 0 0 1-1.43.593H174.64a2.038 2.038 0 0 1-2.019-2.029c0-.574.229-1.072.61-1.455l20.212-20.308h-70.085c-1.105 0-2.019-.9-2.019-2.03 0-1.11.914-2.028 2.02-2.028h74.96c.515 0 1.03.21 1.43.593.78.804.78 2.087 0 2.871l-20.232 20.328h16.193L225.122 165zm-57.34 52.408a2.029 2.029 0 0 1 0-2.852 1.994 1.994 0 0 1 2.858 0l31.413 31.563c.78.785.78 2.067 0 2.871l-31.413 31.564a2 2 0 0 1-1.43.593H117.3c-1.123 0-2.019-.9-2.019-2.029 0-.555.229-1.072.61-1.436l20.212-20.327H66.017c-1.124 0-2.019-.9-2.019-2.01 0-1.13.895-2.029 2.02-2.029h74.96c.515 0 1.03.191 1.41.593.8.785.8 2.068 0 2.852l-20.23 20.328h16.21l29.414-29.534z"/></g></g></svg>