<svg xmlns="http://www.w3.org/2000/svg" width="280" height="319" viewBox="0 0 280 319"><g><g><path fill="#232257" d="M147.723 2.166l62.27 35.994.024-.024 62.437 36.088a15.15 15.15 0 0 1 7.522 13.087H280v144.402c0 5.983-3.475 11.155-8.498 13.61l-61.485 35.565c-.285.143-.57.31-.856.453l-61.652 35.635a15.028 15.028 0 0 1-15.21-.119l-62.27-36.017-.025.048-62.436-36.113C2.735 241.986.046 236.91.046 231.713h-.048V87.31c0-6.007 3.475-11.18 8.522-13.635l61.484-35.54c.286-.167.548-.31.834-.453l61.675-35.66c4.88-2.813 10.688-2.574 15.21.143z"/></g><g><path fill="#fff" d="M160.322 82.787a2.785 2.785 0 0 1 2.78-2.787c15.424 0 29.379 6.258 39.504 16.381 10.072 10.123 16.315 24.086 16.341 39.52v.131c-.026 15.435-6.269 29.397-16.341 39.52-10.1 10.124-24.028 16.382-39.425 16.408h-.131c-15.398-.026-29.326-6.284-39.425-16.408-10.099-10.123-16.368-24.111-16.368-39.572a2.785 2.785 0 0 1 2.78-2.787H120.4a2.769 2.769 0 0 1 2.78 2.787 2.785 2.785 0 0 1-2.78 2.787h-7.502c.682 12.805 6.164 24.348 14.663 32.841 8.472 8.52 19.987 14.015 32.762 14.699v-7.52a2.785 2.785 0 0 1 2.78-2.788 2.769 2.769 0 0 1 2.78 2.788v7.52c12.775-.684 24.29-6.18 32.789-14.699a50.254 50.254 0 0 0 14.663-32.84h-7.528c-1.522 0-2.78-1.263-2.78-2.788a2.785 2.785 0 0 1 2.78-2.787h7.528a50.377 50.377 0 0 0-14.663-32.868c-8.499-8.519-20.014-13.988-32.788-14.698v7.546a2.785 2.785 0 0 1-2.78 2.787c-1.522 0-2.781-1.262-2.781-2.787zm51.858 135.809a10.413 10.413 0 0 0 1.285-4.996c0-2.63-.997-5.26-2.99-7.231l-10.125-10.15c-1.968-1.998-4.59-2.997-7.214-2.997-2.623 0-5.246 1-7.24 2.997-18.256 18.301-39.45 19.51-57.313 11.36-7.057-3.235-13.562-7.915-19.123-13.62-5.56-5.68-10.203-12.359-13.508-19.537-8.525-18.459-8.342-40.256 7.082-57.347L84.672 98.669c-1.101-1.078-1.101-2.84 0-3.944a2.766 2.766 0 0 1 3.909 0l18.073 18.09a10.49 10.49 0 0 0 1.285-4.996c0-2.63-.997-5.259-2.99-7.257L94.824 90.439c-1.968-1.999-4.59-2.998-7.214-2.998-2.623 0-5.246 1-7.24 2.998-20.092 20.14-16.341 49.643-.708 76.647 6.217 10.754 14.296 21.087 23.503 30.317 9.233 9.229 19.594 17.327 30.349 23.585 26.336 15.356 55.058 19.563 74.941 1.762l-18.257-18.3c-1.075-1.079-1.075-2.84 0-3.945 1.076-1.078 2.833-1.078 3.935 0zm2.23 6.179c-22.06 22.113-54.35 18.09-83.677 1.025-11.174-6.494-21.902-14.908-31.476-24.48-9.548-9.544-17.942-20.298-24.395-31.447-16.84-29.081-20.644-61.107 1.6-83.378a15.712 15.712 0 0 1 11.148-4.628c4.04 0 8.08 1.551 11.148 4.628l10.125 10.15c3.07 3.076 4.59 7.125 4.59 11.174 0 4.05-1.52 8.099-4.59 11.175-15.423 15.46-15.843 35.865-7.895 53.114a64.07 64.07 0 0 0 12.407 17.959c5.115 5.232 11.07 9.544 17.496 12.463 15.87 7.257 34.756 6.127 51.097-10.255 3.07-3.076 7.109-4.601 11.148-4.601 4.04 0 8.08 1.525 11.148 4.601l10.125 10.15c3.07 3.076 4.59 7.125 4.59 11.175 0 4.049-1.52 8.098-4.59 11.175zm-51.308-92.74l23.555-23.611c1.102-1.078 2.86-1.078 3.935 0 1.075 1.078 1.075 2.84 0 3.944l-25.523 25.584c-1.075 1.078-2.832 1.078-3.934 0l-31.766-31.868c-1.101-1.078-1.101-2.84 0-3.944a2.766 2.766 0 0 1 3.909 0z"/></g></g></svg>